<svg width="39" height="39" viewBox="0 0 39 39" fill="none" xmlns="http://www.w3.org/2000/svg">
<path d="M26.9375 15.25C28.6979 15.25 30.125 13.8229 30.125 12.0625C30.125 10.3021 28.6979 8.875 26.9375 8.875C25.1771 8.875 23.75 10.3021 23.75 12.0625C23.75 13.8229 25.1771 15.25 26.9375 15.25Z" fill="#181818"/>
<path d="M0.375 4.625C0.375 2.27779 2.27779 0.375 4.625 0.375H34.375C36.7222 0.375 38.625 2.27779 38.625 4.625V34.375C38.625 36.7222 36.7222 38.625 34.375 38.625H4.625C2.27779 38.625 0.375 36.7222 0.375 34.375V4.625ZM34.375 4.625H4.625V21.4537L11.7976 15.7157C12.5737 15.0948 13.6765 15.0948 14.4526 15.7157L23.5924 23.0275L26.4975 20.1224C27.3273 19.2925 28.6728 19.2925 29.5027 20.1224L34.375 24.9947V4.625ZM4.625 34.375H34.375V31.0051L28.0001 24.6302L25.2527 27.3776C24.487 28.1433 23.2681 28.2108 22.4226 27.5343L13.1251 20.0963L4.625 26.8964V34.375Z" fill="#181818"/>
</svg>
