<svg width="86" height="86" viewBox="0 0 86 86" fill="none" xmlns="http://www.w3.org/2000/svg">
<path d="M0 32C0 20.799 0 15.1984 2.17987 10.9202C4.09734 7.15695 7.15695 4.09734 10.9202 2.17987C15.1984 0 20.799 0 32 0H54C65.201 0 70.8016 0 75.0798 2.17987C78.843 4.09734 81.9027 7.15695 83.8201 10.9202C86 15.1984 86 20.799 86 32V54C86 65.201 86 70.8016 83.8201 75.0798C81.9027 78.843 78.843 81.9027 75.0798 83.8201C70.8016 86 65.201 86 54 86H32C20.799 86 15.1984 86 10.9202 83.8201C7.15695 81.9027 4.09734 78.843 2.17987 75.0798C0 70.8016 0 65.201 0 54V32Z" fill="#FEFFFB"/>
<mask id="mask0_1_179" style="mask-type:alpha" maskUnits="userSpaceOnUse" x="0" y="0" width="86" height="86">
<path d="M0 32C0 20.799 0 15.1984 2.17987 10.9202C4.09734 7.15695 7.15695 4.09734 10.9202 2.17987C15.1984 0 20.799 0 32 0H54C65.201 0 70.8016 0 75.0798 2.17987C78.843 4.09734 81.9027 7.15695 83.8201 10.9202C86 15.1984 86 20.799 86 32V54C86 65.201 86 70.8016 83.8201 75.0798C81.9027 78.843 78.843 81.9027 75.0798 83.8201C70.8016 86 65.201 86 54 86H32C20.799 86 15.1984 86 10.9202 83.8201C7.15695 81.9027 4.09734 78.843 2.17987 75.0798C0 70.8016 0 65.201 0 54V32Z" fill="#FEFFFB"/>
</mask>
<g mask="url(#mask0_1_179)">
<path d="M26 18.5C26.2354 17.3231 27.9934 15.0045 29.5607 13.3565C29.9185 12.9803 29.579 12.3382 29.0914 12.5167C24.8026 14.0874 22.4388 17.9287 22 21C21.7172 22.9799 22 26.5 25.5 27.5C29.1614 28.5461 30.499 23.5 30 23.5C27 23.5 25.5 21 26 18.5Z" fill="#FDA72C"/>
<path d="M16 18.5C16.2354 17.3231 17.9934 15.0045 19.5607 13.3565C19.9185 12.9803 19.579 12.3382 19.0914 12.5167C14.8026 14.0874 12.4388 17.9287 12 21C11.7172 22.9799 12 26.5 15.5 27.5C19.1614 28.5461 20.499 23.5 20 23.5C17 23.5 15.5 21 16 18.5Z" fill="#FDA72C"/>
<rect x="9.5" y="8.5" width="23" height="23" stroke="#EEE4D8"/>
<rect x="3" y="79" width="80" height="1" fill="#EEE4D8"/>
<rect x="-2" y="71" width="90" height="1" fill="#EEE4D8"/>
<rect x="-2" y="63" width="90" height="1" fill="#EEE4D8"/>
<rect x="-2" y="55" width="90" height="1" fill="#EEE4D8"/>
<rect x="-2" y="47" width="90" height="1" fill="#EEE4D8"/>
<rect x="-2" y="39" width="90" height="1" fill="#EEE4D8"/>
<rect x="38" y="31" width="50" height="1" fill="#EEE4D8"/>
<rect x="38" y="23" width="50" height="1" fill="#EEE4D8"/>
<rect x="38" y="15" width="50" height="1" fill="#EEE4D8"/>
<rect x="38" y="7" width="50" height="1" fill="#EEE4D8"/>
<g filter="url(#filter0_d_1_179)">
<path d="M26 78L34 70.8261L28.6667 67L26 78Z" fill="url(#paint0_linear_1_179)"/>
<path d="M36.3855 51.4426L43.3137 55.4426L34.4282 70.8327C34.1521 71.3109 33.5405 71.4748 33.0622 71.1987L27.866 68.1987C27.3877 67.9225 27.2239 67.3109 27.5 66.8327L36.3855 51.4426Z" fill="url(#paint1_linear_1_179)"/>
<rect x="45.0636" y="36" width="8" height="18.1273" transform="rotate(30 45.0636 36)" fill="url(#paint2_linear_1_179)"/>
<path opacity="0.2" d="M54.926 20.3965C55.4895 19.5439 56.6051 19.2532 57.513 19.7225L59.5547 20.778C60.5355 21.285 60.9199 22.4907 60.4136 23.4718L51.2955 41.1415L44 36.9295L54.926 20.3965Z" fill="black" fill-opacity="0.62"/>
<path d="M60.0296 11.5125C60.5815 10.6523 61.6932 10.3466 62.6074 10.8037L65.1689 12.0844C66.1732 12.5866 66.5674 13.8169 66.042 14.8092L52.4759 40.4281L44.4508 35.7948L60.0296 11.5125Z" fill="url(#paint3_linear_1_179)"/>
<g filter="url(#filter1_d_1_179)">
<path d="M59.3175 10.9127C59.5851 10.4681 60.1337 10.2802 60.6176 10.4676C61.2227 10.7018 61.4807 11.4173 61.1642 11.9838L50.1726 31.6588C49.7834 32.3555 48.8994 32.5991 48.2083 32.2001C47.5153 31.7999 47.2852 30.9092 47.6978 30.2235L59.3175 10.9127Z" fill="url(#paint4_linear_1_179)"/>
</g>
</g>
</g>
<defs>
<filter id="filter0_d_1_179" x="21" y="8.39545" width="50.2749" height="77.6045" filterUnits="userSpaceOnUse" color-interpolation-filters="sRGB">
<feFlood flood-opacity="0" result="BackgroundImageFix"/>
<feColorMatrix in="SourceAlpha" type="matrix" values="0 0 0 0 0 0 0 0 0 0 0 0 0 0 0 0 0 0 127 0" result="hardAlpha"/>
<feOffset dy="3"/>
<feGaussianBlur stdDeviation="2.5"/>
<feColorMatrix type="matrix" values="0 0 0 0 0 0 0 0 0 0 0 0 0 0 0 0 0 0 0.35 0"/>
<feBlend mode="normal" in2="BackgroundImageFix" result="effect1_dropShadow_1_179"/>
<feBlend mode="normal" in="SourceGraphic" in2="effect1_dropShadow_1_179" result="shape"/>
</filter>
<filter id="filter1_d_1_179" x="45.4928" y="9.39545" width="17.8073" height="25.9965" filterUnits="userSpaceOnUse" color-interpolation-filters="sRGB">
<feFlood flood-opacity="0" result="BackgroundImageFix"/>
<feColorMatrix in="SourceAlpha" type="matrix" values="0 0 0 0 0 0 0 0 0 0 0 0 0 0 0 0 0 0 127 0" result="hardAlpha"/>
<feOffset dy="1"/>
<feGaussianBlur stdDeviation="1"/>
<feColorMatrix type="matrix" values="0 0 0 0 0 0 0 0 0 0 0 0 0 0 0 0 0 0 0.25 0"/>
<feBlend mode="normal" in2="BackgroundImageFix" result="effect1_dropShadow_1_179"/>
<feBlend mode="normal" in="SourceGraphic" in2="effect1_dropShadow_1_179" result="shape"/>
</filter>
<linearGradient id="paint0_linear_1_179" x1="32.4" y1="74.6522" x2="26.6405" y2="68.7647" gradientUnits="userSpaceOnUse">
<stop offset="0.102562" stop-color="#626B6A"/>
<stop offset="0.435624" stop-color="#F7FFFF"/>
</linearGradient>
<linearGradient id="paint1_linear_1_179" x1="37.1226" y1="65.2877" x2="29.6199" y2="60.792" gradientUnits="userSpaceOnUse">
<stop stop-color="#171813"/>
<stop offset="0.666667" stop-color="#747474"/>
<stop offset="0.984375" stop-color="#232323"/>
</linearGradient>
<linearGradient id="paint2_linear_1_179" x1="52.6736" y1="44.3081" x2="46.8435" y2="44.21" gradientUnits="userSpaceOnUse">
<stop stop-color="#995100"/>
<stop offset="0.0729167" stop-color="#EF7E00"/>
<stop offset="0.588542" stop-color="#EAB326"/>
<stop offset="1" stop-color="#FFEB72"/>
</linearGradient>
<linearGradient id="paint3_linear_1_179" x1="60" y1="25" x2="54.6148" y2="22.3233" gradientUnits="userSpaceOnUse">
<stop stop-color="#763E00"/>
<stop offset="0.0572917" stop-color="#BF6500"/>
<stop offset="0.260417" stop-color="#EF7E00"/>
<stop offset="0.588542" stop-color="#EAB326"/>
<stop offset="1" stop-color="#FFEB72"/>
</linearGradient>
<linearGradient id="paint4_linear_1_179" x1="56.1146" y1="21.1245" x2="54.2836" y2="20.0565" gradientUnits="userSpaceOnUse">
<stop stop-color="#D2C79A"/>
<stop offset="0.588542" stop-color="#EEEEEE"/>
<stop offset="1" stop-color="#E6E6E6"/>
</linearGradient>
</defs>
</svg>
